# xmcd CD database file
#
# Track frame offsets:
#	150
#	10579
#	21813
#	34559
#	47985
#	60533
#	72631
#	84678
#	96238
#	108021
#	121413
#	133584
#	143545
#	154696
#	166085
#	175868
#	186772
#	197904
#	211032
#	225666
#	238314
#	247470
#	259247
#	269278
#	281012
#	295470
#	304948
#	317161
#
# Disc length: 4381 seconds
#
# Revision: 1
# Processed by: cddbd v1.5.2PL0 Copyright (c) Steve Scherf et al.
# Submitted via: CDex 1.70beta2
#
DISCID=9b111b1c
DTITLE=Jimmy Wakely - Jimmy Wakely  * 1942 - 1952 *
DYEAR=2009
DGENRE=Country
TTITLE0=Standing Outside Of Heaven
TTITLE1=I'm Sending You Red Roses
TTITLE2=One Has My Name (The Other Has My Heart)
TTITLE3=Mine, All Mine
TTITLE4=I Love You So Much It Hurts
TTITLE5=Till The End Of The World  (with Velma Williams)
TTITLE6=Telling My Troubles To My Old Guitar
TTITLE7=Too Bad, Little Girl
TTITLE8=Someday You'll Call My Name  (with Valerie Williams)
TTITLE9=I Wish I Had A Nickel
TTITLE10=Wedding Bells  (with Margaret Whiting)
TTITLE11=Slippin' Around  (with Margaret Whiting)
TTITLE12=The Gods Were Angry With Me  (with Margaret Whiting)
TTITLE13=Broken-Down Merry-Go-Round  (with Margaret Whiting)
TTITLE14=Dust
TTITLE15=Why Do You Say Those Things (That Hurt Me So)?  (with Margaret Whiting)
TTITLE16=Let's Go to Church Next Sunday Morning  (with Margaret Whiting)
TTITLE17=My Heart Cries For You
TTITLE18=There's That Same Old Lovelight In Your Eyes
TTITLE19=Beautiful Brown Eyes
TTITLE20=A Bushel And A Peck  (with Margaret Whiting)
TTITLE21=When It's Harvest Time, Sweet Angeline
TTITLE22=When You And I Were Young, Maggie  (with Margaret Whiting)
TTITLE23=I Don't Want To Be Free  (with Margaret Whiting)
TTITLE24=Rainbow At Midnight
TTITLE25=I'll Never Slip Around Again
TTITLE26=At The Close Of A Long, Long Day
TTITLE27=When I Say Goodnight
EXTD=YEAR: 2009
EXTT0=
EXTT1=
EXTT2=
EXTT3=
EXTT4=
EXTT5=
EXTT6=
EXTT7=
EXTT8=
EXTT9=
EXTT10=
EXTT11=
EXTT12=
EXTT13=
EXTT14=
EXTT15=
EXTT16=
EXTT17=
EXTT18=
EXTT19=
EXTT20=
EXTT21=
EXTT22=
EXTT23=
EXTT24=
EXTT25=
EXTT26=
EXTT27=
PLAYORDER=
